<svg width="999.9999999999999" height="336.5164487316083" viewBox="0 0 999.9999999999999 336.5164487316083" xmlns="http://www.w3.org/2000/svg"><defs/><path fill="#08619a" transform="matrix(1.5726767632514866 0 0 1.5726767632514866 -15.100340893415193 -100.28187037884155)" d="M 303.53646690286 122.4398446392 C 309.91446690286 120.3688446392 316.41046690286 118.8478446392 322.93446690286 117.7398446392 C 326.19946690286 117.1948446392 329.48546690286 116.8138446392 332.77546690286 116.5188446392 C 336.06246690286 116.2128446392 339.36146690286 116.0448446392 342.66446690286 116.0088446392 C 355.88246690286 115.8378446392 369.16246690286 117.5898446392 382.38146690286 120.6378446392 C 408.87446690286 126.6858446392 434.98246690286 137.5458446392 462.88746690286 145.9898446392 C 476.83246690286 150.1558446392 491.34746690286 153.7518446392 506.32546690286 154.9528446392 C 521.22046690286 156.1568446392 536.71746690286 154.7418446392 550.08146690286 149.0348446392 C 542.81046690286 149.5868446392 535.67446690286 149.3878446392 528.71246690286 148.6218446392 C 521.74546690286 147.8198446392 514.94146690286 146.4388446392 508.26946690286 144.6068446392 C 494.91746690286 140.9748446392 482.04546690286 135.8218446392 469.13246690286 130.3308446392 C 456.23346690286 124.7928446392 443.22646690286 119.0228446392 429.75946690286 113.6328446392 C 423.00546690286 110.9938446392 416.14346690286 108.4368446392 409.11646690286 106.1308446392 C 402.06846690286 103.8848446392 394.88846690286 101.7758446392 387.51246690286 100.1418446392 C 372.79146690286 96.8468446392 357.27346690286 95.1058446392 341.73646690286 96.1768446392 C 326.21846690286 97.1508446392 310.89246690286 101.0478446392 297.04746690286 107.2478446392 C 283.18046690286 113.4728446392 270.77246690286 121.8558446392 259.90946690286 131.4298446392 C 254.48446690286 136.2328446392 249.40046690286 141.3068446392 244.69546690286 146.6468446392 C 239.96246690286 151.9598446392 235.61446690286 157.5478446392 231.62946690286 163.3418446392 C 243.07846690286 154.7908446392 254.48746690286 146.5608446392 266.44246690286 139.5108446392 C 278.36046690286 132.4448446392 290.73746690286 126.4908446392 303.53646690286 122.4398446392 Z"/><path fill="#08619a" transform="matrix(1.5726767632514866 0 0 1.5726767632514866 -15.100340893415193 -100.28187037884155)" d="M 343.28546690286 191.8808446392 C 357.65146690286 191.2078446392 372.18946690286 189.7208446392 386.34846690286 186.1548446392 C 393.40946690286 184.3598446392 400.36846690286 182.0258446392 406.89146690286 178.8778446392 C 413.41246690286 175.7558446392 419.48646690286 171.7708446392 424.48646690286 166.9208446392 C 411.87346690286 173.3258446392 398.26646690286 175.8958446392 384.64846690286 176.9688446392 C 370.99246690286 178.0198446392 357.21746690286 177.5828446392 343.40746690286 176.7448446392 C 315.76546690286 175.0098446392 287.90446690286 171.6128446392 259.48446690286 169.8998446392 L 248.80446690286 169.3068446392 C 245.23146690286 169.1678446392 241.65346690286 169.0538446392 238.06546690286 168.9678446392 C 230.89346690286 168.7608446392 223.68046690286 168.8188446392 216.43946690286 169.0478446392 C 209.19846690286 169.2558446392 201.93346690286 169.8298446392 194.66146690286 170.6088446392 C 187.39846690286 171.5058446392 180.11546690286 172.6028446392 172.92346690286 174.3138446392 C 165.71646690286 175.9548446392 158.60346690286 178.1468446392 151.70346690286 180.8958446392 C 144.83146690286 183.7018446392 138.19046690286 187.1218446392 132.10346690286 191.2788446392 C 119.90246690286 199.5468446392 110.19146690286 210.9218446392 104.98046690286 223.5968446392 C 109.67946690286 218.4718446392 114.79346690286 213.9038446392 120.23146690286 209.9558446392 C 125.68446690286 206.0178446392 131.51346690286 202.7508446392 137.57746690286 200.0958446392 C 149.72446690286 194.7888446392 162.77646690286 191.8918446392 176.07846690286 190.2218446392 C 182.74546690286 189.4458446392 189.47446690286 188.8558446392 196.26446690286 188.6228446392 C 203.04346690286 188.2678446392 209.87346690286 188.2708446392 216.73646690286 188.2798446392 C 223.59846690286 188.3088446392 230.49146690286 188.5488446392 237.41246690286 188.7618446392 C 240.87546690286 188.8838446392 244.34246690286 189.0378446392 247.81546690286 189.2148446392 L 258.25946690286 189.6928446392 L 279.25946690286 190.7908446392 L 289.82146690286 191.3308446392 L 300.42946690286 191.7528446392 C 314.59546690286 192.2998446392 328.89346690286 192.4848446392 343.28546690286 191.8808446392 Z"/><path fill="#08619a" transform="matrix(1.5726767632514866 0 0 1.5726767632514866 -15.100340893415193 -100.28187037884155)" d="M 495.44546690286 227.3928446392 C 468.66446690286 181.8698446392 405.69946690286 182.1818446392 380.92646690286 228.9318446392 L 291.46046690286 242.4058446392 L 392.35446690286 242.4058446392 C 392.35446690286 242.4058446392 403.29446690286 212.1308446392 439.03446690286 212.1308446392 C 474.77146690286 212.1308446392 484.25346690286 245.6418446392 484.25346690286 245.6418446392 C 484.25346690286 245.6418446392 539.26046690286 247.0278446392 541.44746690286 195.2598446392 C 531.57746690286 215.8748446392 508.30046690286 227.6198446392 495.44546690286 227.3928446392 Z"/></svg>